<?xml version="1.0" encoding="UTF-8"?>
<svg xmlns="http://www.w3.org/2000/svg" version="1.1" viewBox="0 0 64 64">
  <defs>
    <style>
      .cls-1 {
        fill: #161616;
      }
    </style>
  </defs>
  <!-- Generator: Adobe Illustrator 28.6.0, SVG Export Plug-In . SVG Version: 1.2.0 Build 709)  -->
  <g>
    <g id="Layer_1">
      <g>
        <polygon class="cls-1" points="59.7 4.3 59.7 4.3 55.5 4.3 55.5 8.5 51.2 8.5 51.2 12.8 55.5 12.8 55.5 8.5 59.7 8.5 59.7 12.8 59.7 17.1 59.7 21.3 59.7 21.3 59.7 25.6 59.7 29.9 59.7 34.1 59.7 34.1 59.7 38.4 59.7 42.7 59.7 46.9 59.7 46.9 59.7 51.2 59.7 55.5 55.5 55.5 55.5 59.7 59.7 59.7 59.7 59.7 64 59.7 64 55.5 64 51.2 64 46.9 64 46.9 64 42.7 64 38.4 64 34.1 64 34.1 64 29.9 64 25.6 64 21.3 64 21.3 64 17.1 64 12.8 64 8.5 64 8.5 64 4.3 59.7 4.3"/>
        <polygon class="cls-1" points="21.3 12.8 25.6 12.8 25.6 8.5 29.9 8.5 29.9 12.8 29.9 17.1 29.9 21.3 34.1 21.3 34.1 17.1 34.1 12.8 34.1 8.5 34.1 8.5 34.1 4.3 29.9 4.3 25.6 4.3 25.6 8.5 21.3 8.5 21.3 12.8 17.1 12.8 17.1 17.1 21.3 17.1 21.3 12.8"/>
        <polygon class="cls-1" points="42.7 21.3 46.9 21.3 46.9 17.1 51.2 17.1 51.2 12.8 46.9 12.8 46.9 17.1 42.7 17.1 42.7 21.3 38.4 21.3 38.4 25.6 42.7 25.6 42.7 21.3"/>
        <polygon class="cls-1" points="8.5 25.6 12.8 25.6 12.8 21.3 17.1 21.3 17.1 17.1 12.8 17.1 12.8 21.3 8.5 21.3 8.5 25.6 4.3 25.6 4.3 29.9 8.5 29.9 8.5 25.6"/>
        <polygon class="cls-1" points="34.1 34.1 34.1 29.9 38.4 29.9 38.4 25.6 34.1 25.6 34.1 29.9 29.9 29.9 29.9 34.1 34.1 34.1 34.1 38.4 38.4 38.4 38.4 34.1 34.1 34.1"/>
        <polygon class="cls-1" points="8.5 38.4 8.5 34.1 4.3 34.1 4.3 29.9 0 29.9 0 34.1 4.3 34.1 4.3 38.4 8.5 38.4 8.5 42.7 12.8 42.7 12.8 38.4 8.5 38.4"/>
        <rect class="cls-1" x="38.4" y="38.4" width="4.3" height="4.3"/>
        <polygon class="cls-1" points="29.9 46.9 29.9 46.9 29.9 51.2 29.9 55.5 25.6 55.5 25.6 59.7 29.9 59.7 34.1 59.7 34.1 55.5 34.1 51.2 34.1 46.9 34.1 46.9 34.1 42.7 29.9 42.7 29.9 46.9"/>
        <polygon class="cls-1" points="46.9 46.9 46.9 42.7 42.7 42.7 42.7 46.9 46.9 46.9 46.9 51.2 51.2 51.2 51.2 46.9 46.9 46.9"/>
        <polygon class="cls-1" points="21.3 51.2 21.3 46.9 17.1 46.9 17.1 42.7 12.8 42.7 12.8 46.9 17.1 46.9 17.1 51.2 21.3 51.2 21.3 55.5 25.6 55.5 25.6 51.2 21.3 51.2"/>
        <rect class="cls-1" x="51.2" y="51.2" width="4.3" height="4.3"/>
      </g>
    </g>
  </g>
</svg>