<?xml version="1.0" encoding="UTF-8"?>
<svg xmlns="http://www.w3.org/2000/svg" version="1.1" viewBox="0 0 64 64">
  <defs>
    <style>
      .cls-1 {
        fill: #161616;
      }
    </style>
  </defs>
  <!-- Generator: Adobe Illustrator 28.6.0, SVG Export Plug-In . SVG Version: 1.2.0 Build 709)  -->
  <g>
    <g id="Layer_1">
      <g>
        <rect class="cls-1" x="38.4" y="51.2" width="4.3" height="4.3"/>
        <polygon class="cls-1" points="34.1 51.2 34.1 46.9 34.1 46.9 34.1 42.7 29.9 42.7 29.9 46.9 29.9 46.9 29.9 51.2 29.9 55.5 29.9 59.7 34.1 59.7 34.1 59.7 38.4 59.7 38.4 55.5 34.1 55.5 34.1 51.2"/>
        <polygon class="cls-1" points="8.5 55.5 4.3 55.5 4.3 51.2 4.3 46.9 4.3 46.9 4.3 42.7 4.3 38.4 4.3 34.1 4.3 34.1 4.3 29.9 4.3 25.6 4.3 21.3 4.3 21.3 4.3 17.1 4.3 12.8 4.3 8.5 8.5 8.5 8.5 12.8 12.8 12.8 12.8 8.5 8.5 8.5 8.5 4.3 4.3 4.3 0 4.3 0 8.5 0 8.5 0 12.8 0 17.1 0 21.3 0 21.3 0 25.6 0 29.9 0 34.1 0 34.1 0 38.4 0 42.7 0 46.9 0 46.9 0 51.2 0 55.5 0 59.7 4.3 59.7 8.5 59.7 8.5 55.5 12.8 55.5 12.8 51.2 8.5 51.2 8.5 55.5"/>
        <polygon class="cls-1" points="46.9 46.9 42.7 46.9 42.7 51.2 46.9 51.2 46.9 46.9 51.2 46.9 51.2 42.7 46.9 42.7 46.9 46.9"/>
        <rect class="cls-1" x="51.2" y="38.4" width="4.3" height="4.3"/>
        <polygon class="cls-1" points="21.3 42.7 17.1 42.7 17.1 46.9 12.8 46.9 12.8 51.2 17.1 51.2 17.1 46.9 21.3 46.9 21.3 42.7 25.6 42.7 25.6 38.4 21.3 38.4 21.3 42.7"/>
        <polygon class="cls-1" points="29.9 34.1 34.1 34.1 34.1 29.9 29.9 29.9 29.9 34.1 25.6 34.1 25.6 38.4 29.9 38.4 29.9 34.1"/>
        <polygon class="cls-1" points="64 29.9 59.7 29.9 59.7 25.6 55.5 25.6 55.5 29.9 59.7 29.9 59.7 34.1 55.5 34.1 55.5 38.4 59.7 38.4 59.7 34.1 64 34.1 64 29.9"/>
        <rect class="cls-1" x="25.6" y="25.6" width="4.3" height="4.3"/>
        <polygon class="cls-1" points="51.2 21.3 51.2 17.1 46.9 17.1 46.9 12.8 42.7 12.8 42.7 17.1 46.9 17.1 46.9 21.3 51.2 21.3 51.2 25.6 55.5 25.6 55.5 21.3 51.2 21.3"/>
        <polygon class="cls-1" points="21.3 21.3 21.3 25.6 25.6 25.6 25.6 21.3 21.3 21.3 21.3 17.1 17.1 17.1 17.1 21.3 21.3 21.3"/>
        <rect class="cls-1" x="12.8" y="12.8" width="4.3" height="4.3"/>
        <polygon class="cls-1" points="38.4 8.5 38.4 4.3 34.1 4.3 34.1 4.3 29.9 4.3 29.9 8.5 29.9 8.5 29.9 12.8 29.9 17.1 29.9 21.3 34.1 21.3 34.1 17.1 34.1 12.8 34.1 8.5 38.4 8.5 38.4 12.8 42.7 12.8 42.7 8.5 38.4 8.5"/>
      </g>
    </g>
  </g>
</svg>