<?xml version="1.0" encoding="UTF-8"?>
<svg xmlns="http://www.w3.org/2000/svg" version="1.1" viewBox="0 0 64 64">
  <defs>
    <style>
      .cls-1 {
        fill: #161616;
      }
    </style>
  </defs>
  <!-- Generator: Adobe Illustrator 28.6.0, SVG Export Plug-In . SVG Version: 1.2.0 Build 709)  -->
  <g>
    <g id="Layer_1">
      <g>
        <polygon class="cls-1" points="55.5 8.5 55.5 4.3 51.2 4.3 46.9 4.3 46.9 4.3 42.7 4.3 38.4 4.3 34.1 4.3 34.1 4.3 29.9 4.3 25.6 4.3 21.3 4.3 21.3 4.3 17.1 4.3 17.1 8.5 17.1 8.5 17.1 12.8 17.1 17.1 17.1 21.3 12.8 21.3 12.8 17.1 8.5 17.1 8.5 21.3 4.3 21.3 4.3 25.6 4.3 29.9 4.3 34.1 4.3 34.1 4.3 38.4 4.3 42.7 4.3 46.9 8.5 46.9 8.5 51.2 12.8 51.2 12.8 46.9 8.5 46.9 8.5 42.7 8.5 38.4 8.5 34.1 8.5 34.1 8.5 29.9 8.5 25.6 8.5 21.3 12.8 21.3 12.8 25.6 17.1 25.6 17.1 29.9 17.1 34.1 17.1 34.1 17.1 38.4 21.3 38.4 21.3 34.1 21.3 34.1 21.3 29.9 21.3 25.6 21.3 21.3 21.3 21.3 21.3 17.1 21.3 12.8 21.3 8.5 25.6 8.5 29.9 8.5 34.1 8.5 34.1 8.5 38.4 8.5 42.7 8.5 46.9 8.5 46.9 8.5 51.2 8.5 55.5 8.5 55.5 12.8 55.5 17.1 55.5 21.3 55.5 21.3 55.5 25.6 55.5 29.9 55.5 34.1 55.5 34.1 55.5 38.4 55.5 42.7 55.5 46.9 51.2 46.9 51.2 51.2 55.5 51.2 55.5 46.9 59.7 46.9 59.7 42.7 59.7 38.4 59.7 34.1 59.7 34.1 59.7 29.9 59.7 25.6 59.7 21.3 59.7 21.3 59.7 17.1 59.7 12.8 59.7 8.5 55.5 8.5"/>
        <path class="cls-1" d="M34.1,29.9h17.1v-8.5h0v-8.5h-25.6v8.5h0v8.5h8.5ZM29.9,21.3h0v-4.3h17.1v4.3h0v4.3h-17.1v-4.3Z"/>
        <polygon class="cls-1" points="51.2 34.1 46.9 34.1 46.9 34.1 42.7 34.1 38.4 34.1 34.1 34.1 34.1 34.1 29.9 34.1 25.6 34.1 25.6 38.4 29.9 38.4 34.1 38.4 34.1 38.4 38.4 38.4 42.7 38.4 46.9 38.4 46.9 38.4 51.2 38.4 51.2 34.1"/>
        <polygon class="cls-1" points="38.4 42.7 34.1 42.7 34.1 42.7 29.9 42.7 25.6 42.7 21.3 42.7 21.3 42.7 17.1 42.7 17.1 46.9 21.3 46.9 21.3 46.9 25.6 46.9 29.9 46.9 34.1 46.9 34.1 46.9 38.4 46.9 42.7 46.9 46.9 46.9 46.9 42.7 42.7 42.7 38.4 42.7"/>
        <polygon class="cls-1" points="46.9 51.2 42.7 51.2 38.4 51.2 34.1 51.2 34.1 51.2 29.9 51.2 25.6 51.2 21.3 51.2 21.3 51.2 17.1 51.2 12.8 51.2 12.8 55.5 17.1 55.5 21.3 55.5 21.3 55.5 25.6 55.5 29.9 55.5 34.1 55.5 34.1 55.5 38.4 55.5 42.7 55.5 46.9 55.5 46.9 55.5 51.2 55.5 51.2 51.2 46.9 51.2 46.9 51.2"/>
      </g>
    </g>
  </g>
</svg>