<?xml version="1.0" encoding="UTF-8"?><svg id="Layer_1" xmlns="http://www.w3.org/2000/svg" viewBox="0 0 64 64"><defs><style>.cls-1{fill:#161616;}</style></defs><rect class="cls-1" x="4.27" y="12.8" width="4.27" height="4.27"/><rect class="cls-1" x="55.47" y="12.8" width="4.27" height="4.27"/><rect class="cls-1" y="17.07" width="4.27" height="4.27"/><rect class="cls-1" x="59.73" y="17.07" width="4.27" height="4.27"/><rect class="cls-1" y="21.33" width="4.27" height="4.27"/><rect class="cls-1" x="59.73" y="21.33" width="4.27" height="4.27"/><rect class="cls-1" y="25.6" width="4.27" height="4.27"/><rect class="cls-1" x="59.73" y="25.6" width="4.27" height="4.27"/><rect class="cls-1" y="29.87" width="4.27" height="4.27"/><rect class="cls-1" x="59.73" y="29.87" width="4.27" height="4.27"/><rect class="cls-1" y="34.13" width="4.27" height="4.27"/><rect class="cls-1" x="59.73" y="34.13" width="4.27" height="4.27"/><rect class="cls-1" x="4.27" y="38.4" width="4.27" height="4.27"/><rect class="cls-1" x="59.73" y="38.4" width="4.27" height="4.27"/><rect class="cls-1" x="59.73" y="42.67" width="4.27" height="4.27"/><rect class="cls-1" x="46.93" y="42.67" width="4.27" height="4.27"/><rect class="cls-1" x="59.73" y="46.93" width="4.27" height="4.27"/><rect class="cls-1" x="51.2" y="46.93" width="4.27" height="4.27"/><rect class="cls-1" x="59.73" y="51.2" width="4.27" height="4.27"/><rect class="cls-1" x="55.47" y="51.2" width="4.27" height="4.27"/><rect class="cls-1" x="59.73" y="55.47" width="4.27" height="4.27"/><rect class="cls-1" x="8.53" y="8.53" width="4.27" height="4.27"/><rect class="cls-1" x="12.8" y="4.27" width="4.27" height="4.27"/><rect class="cls-1" x="17.07" y="4.27" width="4.27" height="4.27"/><rect class="cls-1" x="21.33" y="4.27" width="4.27" height="4.27"/><rect class="cls-1" x="25.6" y="4.27" width="4.27" height="4.27"/><rect class="cls-1" x="29.87" y="4.27" width="4.27" height="4.27"/><rect class="cls-1" x="34.13" y="4.27" width="4.27" height="4.27"/><rect class="cls-1" x="38.4" y="4.27" width="4.27" height="4.27"/><rect class="cls-1" x="42.67" y="4.27" width="4.27" height="4.27"/><rect class="cls-1" x="46.93" y="4.27" width="4.27" height="4.27"/><rect class="cls-1" x="51.2" y="8.53" width="4.27" height="4.27"/><rect class="cls-1" x="8.53" y="42.67" width="4.27" height="4.27"/><rect class="cls-1" x="12.8" y="46.93" width="4.27" height="4.27"/><rect class="cls-1" x="17.07" y="46.93" width="4.27" height="4.27"/><rect class="cls-1" x="21.33" y="46.93" width="4.27" height="4.27"/><rect class="cls-1" x="25.6" y="46.93" width="4.27" height="4.27"/><rect class="cls-1" x="29.87" y="46.93" width="4.27" height="4.27"/><rect class="cls-1" x="34.13" y="46.93" width="4.27" height="4.27"/><rect class="cls-1" x="38.4" y="46.93" width="4.27" height="4.27"/><rect class="cls-1" x="42.67" y="46.93" width="4.27" height="4.27"/></svg>