<?xml version="1.0" encoding="UTF-8"?>
<svg xmlns="http://www.w3.org/2000/svg" version="1.1" viewBox="0 0 64 64">
  <defs>
    <style>
      .cls-1 {
        fill: #161616;
      }
    </style>
  </defs>
  <!-- Generator: Adobe Illustrator 28.6.0, SVG Export Plug-In . SVG Version: 1.2.0 Build 709)  -->
  <g>
    <g id="Layer_1">
      <g>
        <rect class="cls-1" x="38.4" y="46.9" width="4.3" height="4.3"/>
        <polygon class="cls-1" points="51.2 46.9 51.2 46.9 51.2 42.7 51.2 38.4 51.2 34.1 51.2 34.1 51.2 29.9 51.2 25.6 51.2 21.3 51.2 21.3 51.2 17.1 46.9 17.1 46.9 12.8 42.7 12.8 38.4 12.8 34.1 12.8 34.1 12.8 29.9 12.8 29.9 17.1 34.1 17.1 34.1 17.1 38.4 17.1 42.7 17.1 46.9 17.1 46.9 21.3 46.9 21.3 46.9 25.6 46.9 29.9 46.9 34.1 46.9 34.1 46.9 38.4 46.9 42.7 46.9 46.9 46.9 46.9 46.9 51.2 42.7 51.2 42.7 55.5 46.9 55.5 46.9 59.7 51.2 59.7 51.2 55.5 55.5 55.5 55.5 51.2 51.2 51.2 51.2 46.9"/>
        <rect class="cls-1" x="55.5" y="46.9" width="4.3" height="4.3"/>
        <polygon class="cls-1" points="25.6 46.9 21.3 46.9 21.3 46.9 17.1 46.9 17.1 42.7 17.1 38.4 17.1 34.1 17.1 34.1 17.1 29.9 17.1 25.6 17.1 21.3 17.1 21.3 17.1 17.1 17.1 12.8 21.3 12.8 21.3 17.1 25.6 17.1 25.6 12.8 21.3 12.8 21.3 8.5 17.1 8.5 17.1 4.3 12.8 4.3 12.8 8.5 8.5 8.5 8.5 12.8 4.3 12.8 4.3 17.1 8.5 17.1 8.5 12.8 12.8 12.8 12.8 17.1 12.8 21.3 12.8 21.3 12.8 25.6 12.8 29.9 12.8 34.1 12.8 34.1 12.8 38.4 12.8 42.7 12.8 46.9 17.1 46.9 17.1 51.2 21.3 51.2 21.3 51.2 25.6 51.2 29.9 51.2 34.1 51.2 34.1 46.9 29.9 46.9 25.6 46.9"/>
      </g>
    </g>
  </g>
</svg>