<?xml version="1.0" encoding="UTF-8"?>
<svg xmlns="http://www.w3.org/2000/svg" version="1.1" viewBox="0 0 64 64">
  <defs>
    <style>
      .cls-1 {
        fill: #161616;
      }
    </style>
  </defs>
  <!-- Generator: Adobe Illustrator 28.6.0, SVG Export Plug-In . SVG Version: 1.2.0 Build 709)  -->
  <g>
    <g id="Layer_1">
      <g>
        <rect class="cls-1" x="25.6" y="51.2" width="4.3" height="4.3"/>
        <polygon class="cls-1" points="21.3 51.2 21.3 46.9 21.3 46.9 21.3 42.7 21.3 38.4 21.3 34.1 21.3 34.1 21.3 29.9 21.3 25.6 21.3 21.3 21.3 21.3 21.3 17.1 21.3 12.8 21.3 8.5 25.6 8.5 25.6 12.8 29.9 12.8 29.9 8.5 25.6 8.5 25.6 4.3 21.3 4.3 21.3 4.3 17.1 4.3 17.1 8.5 17.1 8.5 17.1 12.8 17.1 17.1 17.1 21.3 17.1 21.3 17.1 25.6 17.1 29.9 17.1 34.1 17.1 34.1 17.1 38.4 17.1 42.7 17.1 46.9 17.1 46.9 17.1 51.2 17.1 55.5 17.1 59.7 21.3 59.7 21.3 59.7 25.6 59.7 25.6 55.5 21.3 55.5 21.3 51.2"/>
        <polygon class="cls-1" points="34.1 46.9 29.9 46.9 29.9 51.2 34.1 51.2 34.1 46.9 38.4 46.9 38.4 42.7 34.1 42.7 34.1 46.9"/>
        <rect class="cls-1" x="38.4" y="38.4" width="4.3" height="4.3"/>
        <polygon class="cls-1" points="51.2 29.9 46.9 29.9 46.9 25.6 42.7 25.6 42.7 29.9 46.9 29.9 46.9 34.1 42.7 34.1 42.7 38.4 46.9 38.4 46.9 34.1 51.2 34.1 51.2 29.9"/>
        <polygon class="cls-1" points="34.1 17.1 34.1 21.3 38.4 21.3 38.4 25.6 42.7 25.6 42.7 21.3 38.4 21.3 38.4 17.1 34.1 17.1 34.1 12.8 29.9 12.8 29.9 17.1 34.1 17.1"/>
      </g>
    </g>
  </g>
</svg>